<svg 
 xmlns="http://www.w3.org/2000/svg"
 xmlns:xlink="http://www.w3.org/1999/xlink"
 width="1058px" height="316px">
<path fill-rule="evenodd"  fill="rgb(0, 0, 0)"
 d="M1055.563,184.089 C1055.696,184.060 1055.838,184.030 1055.1000,183.1000 C1057.669,183.691 1053.919,187.051 1051.1000,187.000 C1044.197,186.793 1051.979,186.942 1046.1000,187.000 C1043.604,187.040 1045.460,187.035 1042.000,185.1000 C1037.177,184.557 1045.901,187.330 1037.981,184.929 C1037.021,184.929 1036.061,185.169 1035.341,186.130 C1031.261,195.730 1021.901,201.970 1011.581,202.210 C1006.540,202.210 1001.500,200.770 996.940,198.370 C985.444,192.852 979.461,180.065 982.776,167.817 C967.425,177.250 950.504,181.089 933.583,181.089 C914.622,181.089 895.662,176.289 878.861,169.329 C877.661,168.849 876.461,168.609 875.261,168.609 C874.061,168.609 872.861,168.849 871.661,169.569 C869.261,170.769 867.581,172.689 866.861,175.089 C865.421,180.609 863.261,185.650 860.381,190.450 C854.621,201.490 843.341,208.690 830.860,208.930 C828.700,208.930 826.540,208.690 824.380,208.450 L821.980,207.490 C812.924,202.639 808.016,192.004 807.388,175.751 C791.452,189.336 767.809,204.610 741.824,204.610 C719.264,204.610 697.903,193.810 689.263,172.209 C685.183,163.809 683.263,160.929 679.423,160.929 C678.703,160.929 677.983,160.929 677.263,161.169 C671.262,162.129 652.062,179.409 642.222,195.970 C640.782,197.890 638.622,199.090 636.462,199.090 C635.982,199.090 635.502,199.090 635.022,198.850 C632.142,197.890 630.222,195.490 630.462,192.370 C631.422,171.489 622.781,158.529 616.301,157.569 C615.581,157.569 615.101,157.329 614.141,157.329 C606.461,157.329 591.101,164.049 561.820,200.770 C560.620,202.210 558.700,202.930 556.780,202.930 C555.820,202.930 555.100,202.930 554.140,202.450 C551.500,201.250 550.060,198.370 550.780,195.490 L556.936,168.427 C538.881,182.204 504.572,204.370 471.582,204.370 C452.142,204.370 431.501,195.490 421.901,177.969 C420.701,176.289 418.781,174.849 416.621,174.849 C414.461,174.849 412.541,175.809 411.341,177.489 C401.021,193.330 386.620,208.210 374.620,208.450 L374.380,208.450 C368.380,208.210 363.100,204.610 360.940,199.090 C356.594,188.111 357.055,176.045 362.301,165.587 C338.796,181.185 291.667,207.490 241.901,207.490 C225.581,207.490 209.981,204.610 194.860,198.610 C170.140,188.530 169.900,171.729 171.820,162.609 C171.857,162.448 171.907,162.287 171.947,162.126 C162.081,167.500 151.163,170.289 140.142,170.289 C126.222,170.289 112.301,165.969 100.301,157.089 C100.061,156.849 99.581,156.609 99.101,156.609 C95.981,156.609 69.820,187.570 66.220,192.130 C65.500,192.850 65.020,193.810 64.780,195.010 C54.700,243.011 37.179,304.692 21.339,313.812 C19.419,314.772 17.499,315.492 15.339,315.492 C12.459,315.252 9.579,314.052 7.419,311.892 C2.379,306.612 -0.021,299.412 0.459,291.972 C1.179,265.571 25.419,223.810 52.780,188.770 C58.540,181.809 60.940,148.929 60.940,139.808 C60.220,136.448 62.380,133.088 65.740,132.368 C69.340,132.368 71.980,132.608 73.180,136.928 C73.420,144.609 72.940,152.529 71.260,160.209 C71.020,161.169 71.740,162.129 72.460,162.609 C72.700,162.849 73.180,162.849 73.420,162.849 C74.140,162.849 74.860,162.609 75.340,162.129 C81.341,155.649 87.101,149.649 92.621,144.609 C94.301,142.929 96.461,142.209 98.621,142.209 C100.301,142.209 102.221,142.689 103.661,143.889 C117.581,154.209 130.302,157.809 141.102,157.809 C162.702,157.809 176.623,143.649 177.343,142.929 C178.543,141.729 179.983,141.008 181.663,141.008 C182.381,141.008 182.998,141.042 183.565,141.160 C195.459,127.443 213.406,117.248 226.541,117.248 C236.141,117.248 243.822,123.008 244.302,133.088 C244.782,138.368 243.102,146.289 231.341,153.969 C219.341,161.409 205.421,165.489 191.260,165.489 C189.820,165.489 188.140,165.249 186.700,165.249 C185.740,165.249 185.260,165.249 184.540,165.729 C184.060,166.209 183.580,166.929 183.820,167.649 C183.100,172.209 184.060,180.609 199.661,186.850 C213.341,192.370 227.501,194.770 241.421,194.770 C306.463,194.770 369.344,145.089 369.824,144.609 C371.264,143.409 372.704,143.169 374.625,143.169 C375.423,143.283 376.165,143.510 376.830,143.866 C387.668,132.167 401.832,123.706 417.581,119.888 C418.061,119.648 418.781,119.648 419.261,119.648 C420.941,119.648 422.621,120.368 423.581,121.568 C425.261,123.248 425.741,125.408 425.261,127.808 C424.541,129.968 422.861,131.648 420.461,132.128 C400.301,136.928 383.500,150.609 374.620,169.329 C370.300,176.529 369.580,185.410 372.220,193.330 C372.940,194.770 373.900,195.730 374.380,195.730 C374.620,195.970 375.100,195.970 375.340,195.970 C382.060,195.970 400.541,166.449 411.341,142.929 C412.541,139.808 414.941,139.328 418.061,139.328 C420.701,139.808 422.861,141.969 423.341,144.609 C423.341,144.849 427.661,172.689 444.942,184.209 C453.102,189.730 462.222,191.890 471.822,191.890 C513.343,191.890 560.864,148.929 561.344,148.449 C561.397,148.407 561.455,148.368 561.509,148.327 L562.300,144.849 C563.260,140.528 566.140,140.048 569.740,140.048 C573.340,140.768 575.260,144.129 574.540,147.489 C574.540,147.489 569.980,167.169 569.980,168.129 C569.740,169.329 570.460,169.809 571.180,169.809 C571.900,169.809 572.380,169.569 572.860,169.089 C593.021,149.169 605.501,145.089 613.901,145.089 C617.021,145.089 619.661,145.809 622.061,146.289 C632.142,150.609 639.342,159.729 641.022,170.769 C641.502,171.969 641.982,172.209 643.182,172.209 C643.902,172.209 644.382,171.969 644.622,171.729 C652.782,162.849 666.462,148.449 679.423,148.449 C691.663,148.449 696.703,158.289 700.543,166.449 C703.423,173.889 708.223,180.129 714.703,184.449 C723.584,189.490 732.704,191.650 741.344,191.650 C769.017,191.650 794.654,170.962 808.171,157.828 C808.512,154.751 808.951,151.550 809.500,148.209 C818.140,95.647 856.301,4.925 881.981,1.085 C883.182,0.605 884.622,0.605 885.822,0.605 C891.102,0.605 896.142,3.725 898.782,8.525 C910.162,33.219 855.848,120.912 829.153,152.693 C828.949,153.553 828.566,154.396 827.986,155.169 C827.460,155.753 824.783,158.985 820.383,163.536 C819.668,169.983 819.895,176.594 820.780,183.009 C821.740,189.730 827.740,194.770 834.460,194.770 C847.181,194.770 854.381,176.529 856.061,166.209 C856.541,161.409 854.381,156.849 850.541,154.209 C848.141,152.529 845.981,151.089 843.821,149.409 C841.901,147.969 841.181,145.809 841.421,143.409 C841.901,141.248 843.341,139.328 845.501,138.608 C847.661,137.648 849.821,137.168 851.981,137.168 C859.661,137.168 865.661,142.689 867.581,149.889 C886.302,160.449 909.822,168.609 933.103,168.609 C953.263,168.609 972.944,162.609 989.504,146.769 C990.704,145.809 992.384,145.089 994.064,145.089 C994.318,145.089 994.564,145.110 994.806,145.142 C1001.153,137.973 1008.859,133.088 1015.421,133.088 L1015.661,133.088 C1019.261,133.088 1021.901,135.968 1021.901,139.568 C1021.901,142.929 1019.021,145.569 1015.421,145.569 C1010.860,145.569 998.620,156.849 995.260,169.329 C992.620,176.289 995.980,184.209 1002.700,187.090 C1005.100,189.010 1007.980,189.730 1010.860,189.730 C1014.701,189.730 1018.301,188.290 1020.941,185.169 C1022.381,183.489 1025.741,179.889 1022.861,177.729 C1018.541,174.849 1015.421,170.529 1014.461,165.489 C1013.260,160.449 1014.221,155.169 1017.101,150.849 C1022.381,141.969 1027.181,139.088 1031.021,139.088 C1032.941,139.088 1034.381,139.808 1035.821,140.528 C1042.301,144.129 1043.501,155.889 1041.581,167.649 C1041.101,170.769 1043.021,173.649 1046.141,174.369 C1047.443,174.594 1048.152,174.716 1048.491,174.775 C1047.761,174.648 1045.935,174.326 1049.1000,175.000 C1053.604,175.598 1054.798,175.880 1055.079,176.004 C1056.736,176.034 1057.1000,177.1000 1057.1000,177.1000 C1058.159,181.683 1056.652,183.394 1055.563,184.089 ZM13.179,292.452 C12.699,295.812 13.659,299.412 15.819,302.532 C23.499,296.772 36.699,257.171 47.020,218.290 C27.819,246.371 13.419,274.932 13.179,292.452 ZM194.140,154.689 C200.861,154.689 217.661,147.969 224.621,143.409 C229.181,140.288 232.061,136.928 231.581,134.288 C231.341,130.688 229.901,129.968 227.261,129.728 C213.821,129.728 199.901,140.288 192.220,150.609 C190.300,153.489 191.260,154.689 194.140,154.689 ZM827.260,132.608 C827.500,132.608 827.740,132.608 827.740,132.608 C828.460,132.608 829.180,132.368 829.660,131.888 C841.421,115.808 851.981,99.008 861.821,81.727 C886.542,38.046 889.422,18.606 887.262,14.046 C887.262,13.806 887.022,13.326 885.582,13.326 C884.862,13.326 884.382,13.326 883.901,13.566 C871.661,15.486 839.740,74.767 826.060,130.208 C825.820,131.168 826.300,132.128 827.260,132.608 ZM1029.581,154.449 C1029.101,155.169 1028.621,156.129 1027.901,157.089 C1025.741,159.969 1026.221,164.049 1029.101,166.209 C1029.821,162.369 1030.061,158.529 1029.581,154.449 ZM54.940,125.648 C52.060,125.648 49.420,123.728 48.700,120.848 C47.980,117.968 49.420,115.088 51.820,113.648 C56.380,111.488 60.460,108.608 63.820,104.768 C65.020,103.568 66.700,102.848 68.620,102.848 C70.060,102.848 71.500,103.328 72.700,104.528 C75.340,106.928 75.340,111.008 72.940,113.648 C69.820,117.008 59.740,125.648 54.940,125.648 Z"/>
</svg>