<svg 
 xmlns="http://www.w3.org/2000/svg"
 xmlns:xlink="http://www.w3.org/1999/xlink"
 width="1459px" height="395px">
<path fill-rule="evenodd"  fill="rgb(0, 0, 0)"
 d="M1456.252,185.149 C1418.752,222.650 1371.051,236.150 1333.251,236.150 C1319.751,236.150 1307.451,234.350 1297.551,231.350 C1296.351,231.350 1295.151,231.650 1294.251,232.850 C1289.151,244.850 1277.450,252.650 1264.550,252.950 C1258.250,252.950 1251.950,251.150 1246.250,248.150 C1231.879,241.252 1224.401,225.268 1228.546,209.957 C1209.356,221.750 1188.205,226.550 1167.051,226.550 C1143.351,226.550 1119.651,220.550 1098.651,211.850 C1097.151,211.250 1095.651,210.950 1094.151,210.950 C1092.651,210.950 1091.151,211.250 1089.651,212.150 C1086.651,213.650 1084.551,216.050 1083.651,219.050 C1081.851,225.950 1079.151,232.250 1075.551,238.250 C1068.350,252.050 1054.250,261.050 1038.650,261.350 C1035.950,261.350 1033.250,261.050 1030.550,260.750 L1027.550,259.550 C1016.230,253.486 1010.094,240.191 1009.309,219.873 C989.390,236.855 959.835,255.950 927.352,255.950 C899.152,255.950 872.452,242.450 861.652,215.450 C856.551,204.949 854.151,201.349 849.351,201.349 C848.451,201.349 847.551,201.349 846.651,201.649 C839.151,202.849 815.151,224.450 802.851,245.150 C801.051,247.550 798.351,249.050 795.651,249.050 C795.051,249.050 794.451,249.050 793.851,248.750 C790.251,247.550 787.851,244.550 788.151,240.650 C789.351,214.550 778.551,198.349 770.451,197.149 C769.551,197.149 768.951,196.849 767.751,196.849 C758.150,196.849 738.950,205.249 702.350,251.150 C700.850,252.950 698.450,253.850 696.050,253.850 C694.850,253.850 693.950,253.850 692.750,253.250 C689.450,251.750 687.650,248.150 688.550,244.550 L696.246,210.718 C673.679,227.940 630.790,255.650 589.551,255.650 C565.251,255.650 539.451,244.550 527.451,222.650 C525.951,220.550 523.551,218.750 520.851,218.750 C518.151,218.750 515.751,219.950 514.250,222.050 C501.350,241.850 483.350,260.450 468.350,260.750 L468.050,260.750 C460.550,260.450 453.950,255.950 451.250,249.050 C445.817,235.325 446.394,220.242 452.953,207.169 C423.573,226.665 364.660,259.550 302.451,259.550 C282.051,259.550 262.550,255.950 243.650,248.450 C212.750,235.850 212.450,214.850 214.850,203.449 C214.896,203.250 214.948,203.051 214.997,202.851 C202.667,209.565 189.024,213.050 175.251,213.050 C157.851,213.050 140.451,207.649 125.450,196.549 C125.150,196.249 124.550,195.949 123.950,195.949 C120.050,195.949 87.350,234.650 82.850,240.350 C81.950,241.250 81.350,242.450 81.050,243.950 C68.450,303.950 46.550,381.051 26.749,392.451 C24.349,393.651 21.949,394.551 19.249,394.551 C15.649,394.251 12.049,392.751 9.349,390.051 C3.049,383.451 0.049,374.451 0.649,365.151 C1.549,332.151 31.849,279.950 66.050,236.150 C73.250,227.450 76.250,186.349 76.250,174.949 C75.350,170.749 78.050,166.549 82.250,165.649 C86.750,165.649 90.050,165.949 91.550,171.349 C91.850,180.949 91.250,190.849 89.150,200.449 C88.850,201.649 89.750,202.849 90.650,203.449 C90.950,203.749 91.550,203.749 91.850,203.749 C92.750,203.749 93.650,203.449 94.250,202.849 C101.750,194.749 108.950,187.249 115.850,180.949 C117.950,178.849 120.650,177.949 123.350,177.949 C125.450,177.949 127.850,178.549 129.651,180.049 C147.051,192.949 162.951,197.449 176.451,197.449 C203.451,197.449 220.851,179.749 221.751,178.849 C223.251,177.349 225.052,176.449 227.151,176.449 C228.045,176.449 228.813,176.491 229.518,176.636 C244.387,159.489 266.831,146.749 283.251,146.749 C295.251,146.749 304.851,153.949 305.451,166.549 C306.051,173.149 303.951,183.049 289.251,192.649 C274.250,201.949 256.850,207.049 239.150,207.049 C237.350,207.049 235.250,206.749 233.450,206.749 C232.250,206.749 231.650,206.749 230.750,207.349 C230.150,207.949 229.550,208.849 229.850,209.749 C228.950,215.450 230.150,225.950 249.650,233.750 C266.750,240.650 284.451,243.650 301.851,243.650 C383.152,243.650 461.752,181.549 462.352,180.949 C464.152,179.449 465.952,179.149 468.352,179.149 C469.352,179.292 470.280,179.576 471.111,180.023 C484.659,165.398 502.364,154.821 522.051,150.049 C522.651,149.749 523.551,149.749 524.151,149.749 C526.251,149.749 528.351,150.649 529.551,152.149 C531.651,154.249 532.251,156.949 531.651,159.949 C530.751,162.649 528.651,164.749 525.651,165.349 C500.450,171.349 479.450,188.449 468.350,211.850 C462.950,220.850 462.050,231.950 465.350,241.850 C466.250,243.650 467.450,244.850 468.050,244.850 C468.350,245.150 468.950,245.150 469.250,245.150 C477.650,245.150 500.750,208.249 514.250,178.849 C515.751,174.949 518.751,174.349 522.651,174.349 C525.951,174.949 528.651,177.649 529.251,180.949 C529.251,181.249 534.651,216.050 556.251,230.450 C566.451,237.350 577.851,240.050 589.851,240.050 C641.752,240.050 701.152,186.349 701.752,185.749 C701.819,185.696 701.893,185.647 701.961,185.595 L702.950,181.249 C704.150,175.849 707.750,175.249 712.250,175.249 C716.750,176.149 719.150,180.349 718.250,184.549 C718.250,184.549 712.550,209.149 712.550,210.350 C712.250,211.850 713.150,212.450 714.050,212.450 C714.950,212.450 715.550,212.150 716.150,211.550 C741.350,186.649 756.950,181.549 767.451,181.549 C771.351,181.549 774.651,182.449 777.651,183.049 C790.251,188.449 799.251,199.849 801.351,213.650 C801.951,215.150 802.551,215.450 804.051,215.450 C804.951,215.450 805.551,215.150 805.851,214.850 C816.051,203.749 833.151,185.749 849.351,185.749 C864.652,185.749 870.952,198.049 875.752,208.249 C879.352,217.550 885.352,225.350 893.452,230.750 C904.552,237.050 915.952,239.750 926.752,239.750 C961.346,239.750 993.394,213.886 1010.289,197.469 C1010.716,193.624 1011.264,189.624 1011.950,185.449 C1022.750,119.749 1070.451,6.347 1102.551,1.547 C1104.051,0.947 1105.851,0.947 1107.351,0.947 C1113.951,0.947 1120.251,4.847 1123.551,10.847 C1137.777,41.714 1069.877,151.342 1036.510,191.066 C1036.254,192.137 1035.775,193.187 1035.053,194.149 C1034.394,194.881 1031.032,198.941 1025.505,204.653 C1024.620,212.696 1024.946,220.948 1026.050,228.950 C1027.250,237.350 1034.750,243.650 1043.150,243.650 C1059.050,243.650 1068.050,220.850 1070.150,207.949 C1070.750,201.949 1068.050,196.249 1063.250,192.949 C1060.250,190.849 1057.550,189.049 1054.850,186.949 C1052.450,185.149 1051.550,182.449 1051.850,179.449 C1052.450,176.749 1054.250,174.349 1056.950,173.449 C1059.650,172.249 1062.350,171.649 1065.050,171.649 C1074.651,171.649 1082.151,178.549 1084.551,187.549 C1107.951,200.749 1137.351,210.950 1166.451,210.950 C1191.652,210.950 1216.252,203.449 1236.952,183.649 C1238.452,182.449 1240.552,181.549 1242.652,181.549 C1242.970,181.549 1243.278,181.576 1243.582,181.617 C1251.516,172.655 1261.148,166.549 1269.350,166.549 L1269.650,166.549 C1274.150,166.549 1277.450,170.149 1277.450,174.649 C1277.450,178.849 1273.850,182.149 1269.350,182.149 C1263.650,182.149 1248.350,196.249 1244.150,211.850 C1240.850,220.550 1245.050,230.450 1253.450,234.050 C1256.450,236.450 1260.050,237.350 1263.650,237.350 C1268.450,237.350 1272.950,235.550 1276.250,231.650 C1278.050,229.550 1282.250,225.050 1278.650,222.350 C1273.250,218.750 1269.350,213.350 1268.150,207.049 C1266.650,200.749 1267.850,194.149 1271.450,188.749 C1278.050,177.649 1284.050,174.049 1288.851,174.049 C1291.251,174.049 1293.051,174.949 1294.851,175.849 C1302.951,180.349 1304.451,195.049 1302.051,209.749 C1301.451,213.650 1303.851,217.250 1307.751,218.150 C1316.451,219.650 1325.151,220.250 1333.851,220.250 C1375.251,220.250 1415.452,203.749 1445.152,174.049 C1446.652,172.549 1448.452,171.649 1450.552,171.649 C1452.652,171.649 1454.752,172.549 1456.252,174.049 C1457.752,175.549 1458.652,177.349 1458.652,179.749 C1458.652,181.849 1457.752,183.649 1456.252,185.149 ZM16.549,365.751 C15.949,369.951 17.149,374.451 19.849,378.351 C29.449,371.151 45.950,321.651 58.850,273.050 C34.850,308.150 16.849,343.851 16.549,365.751 ZM242.750,193.549 C251.150,193.549 272.150,185.149 280.851,179.449 C286.551,175.549 290.151,171.349 289.551,168.049 C289.251,163.549 287.451,162.649 284.151,162.349 C267.350,162.349 249.950,175.549 240.350,188.449 C237.950,192.049 239.150,193.549 242.750,193.549 ZM1034.150,165.949 C1034.450,165.949 1034.750,165.949 1034.750,165.949 C1035.650,165.949 1036.550,165.649 1037.150,165.049 C1051.850,144.949 1065.050,123.949 1077.351,102.348 C1108.251,47.748 1111.851,23.448 1109.151,17.748 C1109.151,17.448 1108.851,16.848 1107.051,16.848 C1106.151,16.848 1105.551,16.848 1104.951,17.148 C1089.651,19.548 1049.750,93.648 1032.650,162.949 C1032.350,164.149 1032.950,165.349 1034.150,165.949 ZM1287.051,193.249 C1286.450,194.149 1285.850,195.349 1284.951,196.549 C1282.250,200.149 1282.850,205.249 1286.450,207.949 C1287.351,203.149 1287.651,198.349 1287.051,193.249 ZM68.750,157.249 C65.150,157.249 61.850,154.849 60.950,151.249 C60.050,147.649 61.850,144.049 64.850,142.249 C70.550,139.549 75.650,135.949 79.850,131.149 C81.350,129.649 83.450,128.749 85.850,128.749 C87.650,128.749 89.450,129.349 90.950,130.849 C94.250,133.849 94.250,138.949 91.250,142.249 C87.350,146.449 74.750,157.249 68.750,157.249 Z"/>
</svg>